<mxfile host="Electron" agent="Mozilla/5.0 (Windows NT 10.0; WOW64) AppleWebKit/537.36 (KHTML, like Gecko) draw.io/24.7.8 Chrome/128.0.6613.36 Electron/32.0.1 Safari/537.36" version="24.7.8">
  <diagram name="Page-1" id="RiFWgn6hv-P_l9p7xyjw">
    <mxGraphModel dx="1098" dy="820" grid="1" gridSize="10" guides="1" tooltips="1" connect="1" arrows="1" fold="1" page="1" pageScale="1" pageWidth="850" pageHeight="1100" math="0" shadow="0">
      <root>
        <mxCell id="0" />
        <mxCell id="1" parent="0" />
        <mxCell id="Hxffqac-jYstxLY02GLs-12" value="" style="shape=image;verticalLabelPosition=bottom;labelBackgroundColor=default;verticalAlign=top;aspect=fixed;imageAspect=0;image=data:image/png,iVBORw0KGgoAAAANSUhEUgAAAA4AAAAfCAYAAADXwvzvAAAB8UlEQVR42mNggIL6/ftZ0s6cYcWHQWoYkEH9/fscna9f8xKDu1+84IZoqq9n6vn0SYQUnHv7NjtD/dOnXH1fv0qTgvvfvxdgaP/wQbDrww9lUnDn669SDG3PP4v2vP2pRRJ+912eof7KK56uV1+NSMHtLz4oMeRuu83e/fKbJSm488k3GXDIdrz6bdP5/LsjsbgeprHp6VfDtmc/PIjFZTde80Li8uEHpY6nX/2JwW2Pv3rBU07l7c+iLU8/hxODGx9/dkRJdq0Pv8QRg5vuvddHTa93P/o03fuURghXXXstiarx3kezhnufcwlhBnRQdPmpbP2djyX4cN3ND+EYGj2BCaH+xqcafLju2gdXBmyg/saHrLobH5tx4fqbnzSwaqy8+M6v9uqHbly4fv99Duw2XnhjVnP5/SQcuJ4BF8je80S46sKHWdhwxfn3CQz4QMWFDz1ARQvRcfGZdzb4NZ55X1xx9t0KdFx89Jk8Xo0Fx1/7lp58uwEZl5x6s5SBECg4/EKp9MTr7ci45MTbWgZiQNGxN5uLj77dD8NFR94EE6fxyJspRUdfH4Ph3IOvDInSmH/wdXr+oTfnYJiBWJC157lpwf5XV0E4/8Dr+QykgLy9L87l7Xt+p2Dv8wSSNKZvf2KZvevV6uglt/mwyQMAhdT8kLExBCwAAAAtdEVYdFNvZnR3YXJlAGJ5LmJsb29kZHkuY3J5cHRvLmltYWdlLlBORzI0RW5jb2RlcqgGf+4AAAAASUVORK5CYII=;" parent="1" vertex="1">
          <mxGeometry x="270" y="687.29" width="54" height="119.57" as="geometry" />
        </mxCell>
        <mxCell id="Hxffqac-jYstxLY02GLs-13" value="" style="shape=image;verticalLabelPosition=bottom;labelBackgroundColor=default;verticalAlign=top;aspect=fixed;imageAspect=0;image=data:image/png,iVBORw0KGgoAAAANSUhEUgAAAA4AAAAgCAYAAAAi7kmXAAAB2UlEQVR42mNgQAWMBDAGYAxdtYqZGFxfX88E11W/v56FFAy2HWRC/ZV6NlJw6KpQZrBt8+/Xc5CCQZrBGlcdK+QkCYM1Ap2682IsNyl42zZPdnCIHrnhx0sKXnVFiw0cqidOmPOdOWPMTyxetQqq8eJOce775w0EiMWhoQzMYI3HVjFwPj7GJ0QMvn9eQACeAM7MZGD9tJ9XhBj8+ggDL0qae7ufQYYYfGUVAw+KxqcHhWRfHxFRJ4QfA72FovHxXmHpp8ekDAlhjOxxZYeW0J1D6tZ48X5NHQyN++crcFw/au6GD1/eq6OMLU8yXDho5XbpkEMALrx/k4MIVo1n97tYnDnoE40LM+AC+/d76xw9FJiKDR856BeEU+OqbZ6i+w/GF2DDu/ZF2jPgAzsOZFRhw+v2xKnh1bhpX37y5v0FLei4fn4CB16NK/dVua/eX92PjFfurSxhIAQWbq1XW7avdSYyXry7KYygxvqZ9Vzz901cgoxn7+mzZSAGzNg1s3fG7lnrYHjStkmiRGmcsGtJ8aTdS3dC8UIGYkHHttWePTvWHQbh7p1rK4nWWLV2rWTbzh1nQbh5x1YfBlJA/Y5D6+t3HL6RNHcjL0kaK7adcKvYfroelzwA8yIv4NYPb4UAAAAtdEVYdFNvZnR3YXJlAGJ5LmJsb29kZHkuY3J5cHRvLmltYWdlLlBORzI0RW5jb2RlcqgGf+4AAAAASUVORK5CYII=;" parent="1" vertex="1">
          <mxGeometry x="512" y="683.4300000000001" width="54" height="123.43" as="geometry" />
        </mxCell>
        <mxCell id="Hxffqac-jYstxLY02GLs-14" value="" style="shape=image;verticalLabelPosition=bottom;labelBackgroundColor=default;verticalAlign=top;aspect=fixed;imageAspect=0;image=data:image/png,iVBORw0KGgoAAAANSUhEUgAAAA4AAAAiCAYAAABvJuicAAAB2klEQVR42pXUT0gUYRjH8a9R2h+z/0gd0sCw1DpEQYQgUYQEHgw6SER06NAhoYPnOXgSgkSw6GBBRYQEUSxS9GegXddx6+htDx4iCMP+mLYz+74H5xls2XVnZt954DOw7Px4H573nRfCqy5EZNV9ecCmuUnqw8h/lsWGqlR+jIavk2yJM/+IzRWr56doWLBpNPHtNVuDkCz/y2ZnEnMW9UGLS+/Zk8T3t2xDHssOzUn8TrOLH6/YvpLhQBKyajCYf2kOJrFksxfbYmNhlkNJyICCycoPN0ubqZ/v2BEEpW83Q7sp2Ykg+PcT+7wcnUayHCmdHNkSz+G4icI0LRVntTjDCRPSXUXQ/Ux7McepWmTfK4LSQtHhdC1Vn9WfLLuVQ3ccfzDHqr9H/wSpHD1xqgZTGlCOM/4L56KUTsz6kn3yW7oQJfLSKdi0aoeLYVSa7sjg4hRNaoa+MF6GzribDp2mP8zKG/bHBtVHevQHLq8n12Ns0EvRpVMMlFMpeqlVy89o1i+5Wq74gpM1g3L16edcL+c+oQ2T0o+5pJ9y47+FcRqNgmqCs/ohNwMTXMG0vLsc1fcZFOoe542DixZNepTbwrtDB0lKj3DNN5S/tXYxmZY7zGE1HN3mKnCuMy3yQ+KxAAAALXRFWHRTb2Z0d2FyZQBieS5ibG9vZGR5LmNyeXB0by5pbWFnZS5QTkcyNEVuY29kZXKoBn/uAAAAAElFTkSuQmCC;" parent="1" vertex="1">
          <mxGeometry x="29.99999999999997" y="673.4300000000001" width="54" height="131.14" as="geometry" />
        </mxCell>
        <mxCell id="Hxffqac-jYstxLY02GLs-15" value="" style="shape=image;verticalLabelPosition=bottom;labelBackgroundColor=default;verticalAlign=top;aspect=fixed;imageAspect=0;image=data:image/png,iVBORw0KGgoAAAANSUhEUgAAAA4AAAAfCAYAAADXwvzvAAACOklEQVR42pWSP2gTYRjGv0FRUMGhUtShQ0H8Aw4WhDopLi7WpKBFBBchQyA22BbSWr1am2KSUkEXqQg6KA4iDmqpg2eFlAqxitpaSIm2mDR3l0tyl1yTL7nBPMULX9PL5XzhBy/v8/zg4D5C/g3H81tckchWK9Ah7ISSyR0BSdplkCiV2jK63gmkcvkkm6G7Lnmi0W1jqtpk8DCfb06Wy2cFXXcavCkUWtgOHHI3k9k9rmn7DaYoPbii6w4W3NgOHBKQtH3BbLHV4EWeHl2guoMFN7YDh4ylK58h08MGT7OltoimO1lwYztwiP+3tDcoasdYpnO0k6U2h0NGo7k9IWGtneWtSh2TFQFgr83hEO6HuDOwWjjF8ixFHS9leh5gr83hrP8S/5/C6dFE8YzB/WSx47FILwDsbIZu9QGMrCjH78S1cwbBhOZ8INIugJ3N0K2Kw8u5IyPxXBdLILl2EdTe0a2KAzGh2b+cv2wHdDe81+GY6rIDqZ1bv1TnUCznsQKdTSL3Uz7BLSm9llQ6JqJygFtUBy2pdDaLPL/95qJy2wp0iNlwC4r3xnw2ZAYyUm+uf0tfGvyeuWcGsrpi/5zcPvA1O2EGsrqii483+b5knpiBjFiNL5J95Pucfr6Byo00mt7ZVH/fJ/kVC24NxZ4ZwdE3K02y4NZQ9ISF1p6wzLPgRuzMtbA0w0Lsjnc6NdH9MTUHsNsWuz9Ibi8vzgPstkX368Shq+9XlwB28j/jnhKveN4J4/Xyv9k6EFOe/ibOAAAALXRFWHRTb2Z0d2FyZQBieS5ibG9vZGR5LmNyeXB0by5pbWFnZS5QTkcyNEVuY29kZXKoBn/uAAAAAElFTkSuQmCC;" parent="1" vertex="1">
          <mxGeometry x="361.38" y="687.29" width="54" height="119.57" as="geometry" />
        </mxCell>
        <mxCell id="Hxffqac-jYstxLY02GLs-16" value="" style="shape=image;verticalLabelPosition=bottom;labelBackgroundColor=default;verticalAlign=top;aspect=fixed;imageAspect=0;image=data:image/png,iVBORw0KGgoAAAANSUhEUgAAAA4AAAAfCAYAAADXwvzvAAACmklEQVR42pWSXUhTYRzG34uioIIujKigLoSguqqLwqAg6iLoooTIQDAoEpKWI5XUVsu1yeaWpaSB5cUkoqigJOjjolORYmIqOj9qOjX2fbadL88257nIx3rHmzpdf/jBw/PBe3EOIX/PyHGrint6Vi8HOoQ9ezC4zsbzGyiueHy7qGmnATSboTs/0rndaxyynMPimZ09FNa0MwB6YY4NuSsIG+tVdRuLd+4ln6adBdALc2yIjVe31onJXMprNbV3XNMKWeCxHWyII5bY4YjO7KY8l1IHfsxoRSzw2A42xDLJb6kLq/soj2OJw/1q6jwLPLaDDal1K5vsoXgexRlJHOtWUxdZ4LEdbIjRFV5vCySOUB6Fkye+KqlLLPDYDjbzn8TiTRyt9SePgwehZD4npS6zwKM5uukfwPxL2m/1qSdBUyBe8E5I6lng0Rzd9NA0pewx+5QC0OifLmqPxstZ4NEc3fSw2hPabJmaLgK2qelzL/nkNRZ4NEf3n//V5JGLKU+DCQMLm5GFVzMh59/yKDrQ5lNrWKiPzqKhcSR60DgmlYNWr2phoT46SwylncZR2QDuj8etLZOqHUBTH53FQ45be3NUug0aPbKjeUK+B6Cpjw5Z6ozDkv7GkGi3/1QaGsaVJgANDxnJdNcHYoWGQaHRMiw23xkRHwJoeMgyDqt6o3nV/WKLaVBstQ6LTgAND1nGYTHny6nsE5zVfUKb2SU9AdDwkJHlrrJn7oXv4rOaPvEFgIZHVrryrkhVxbfoK0Ov0A6g4a04LOsMnaro4t9Wdf8BGt6KQ11HKLesI8qxwCPZ3NUOvpOFZHv6z5GW0i+RXgCd9bD0E1+i58JDADrrYckb/64rHwNjAJr8z5W8D1/QfQjVZ8p/A7tFHp4pd3esAAAALXRFWHRTb2Z0d2FyZQBieS5ibG9vZGR5LmNyeXB0by5pbWFnZS5QTkcyNEVuY29kZXKoBn/uAAAAAElFTkSuQmCC;" parent="1" vertex="1">
          <mxGeometry x="452" y="689.5700000000002" width="51.93" height="115" as="geometry" />
        </mxCell>
        <mxCell id="Hxffqac-jYstxLY02GLs-17" value="" style="shape=image;verticalLabelPosition=bottom;labelBackgroundColor=default;verticalAlign=top;aspect=fixed;imageAspect=0;image=data:image/png,iVBORw0KGgoAAAANSUhEUgAAAA4AAAAfCAYAAADXwvzvAAACD0lEQVR42pWTz0sUYRzGn5KK0CJrI7ISOmQSiv3QopYiIaOS6BBRhw4FHTronyDegkg6dfEQQVHE3DokCdqCrrarewpPbQQp1WK01bo77bzvHNpnYKbvzs7OTg984Mv3eZ7DO+87wD+tGx3F+jCYgVRmHBuWDGx0sYor3bqcv+xgfolLj1mnZFxD04qBzS7fk/Etuvh5QJe/XnRZy97bKTPsIDuBTasJtLiUlu+36eKHAQl3MsMOVg20/Exgm4uZHd6r1zL9Eu5khh38mMDWwhR2uJgfb+zT+ekzEu5khh3kJtFcTGGXROdfxiV+nx3wsKUk2iTq24M+lXt0wqEy+312nKswZ9EusT4N9ajlkT7C2e97V2Jm0P4njf0u1vvuTpW9fZRwlh6z3gMozWB3OYUDHouxg2rp7GHCWXrMesVCAjFrHp1VLLZ2Ofj2zHrF3FM0W3PoigKzVe/VSqMnCvCrPIsOlcKxMJipKZamsUfN43gYzNQUf7/BdrWAU2EwU1M0DDTpNE6HwQyCpNLo1Sn0B0EP9WTN4JB+h3NB0Ktb5OH1Ai4EEfhhXPHVV84yGITzR4TJTuKSPYcrVVR2aCQ1hZP2W1yVcNewWH6NDnsS1yXcNSz+eo5W+xVuSrhDFNkGbkkQVfoZBu0XuEM4Ry6qx+i1n+Au4Ry5WBhDzB7HEOGM/5EawxH9EOfr+X8BiuQ6/p5v64kAAAAtdEVYdFNvZnR3YXJlAGJ5LmJsb29kZHkuY3J5cHRvLmltYWdlLlBORzI0RW5jb2RlcqgGf+4AAAAASUVORK5CYII=;" parent="1" vertex="1">
          <mxGeometry x="110" y="684.21" width="52.07" height="115.29" as="geometry" />
        </mxCell>
        <mxCell id="Hxffqac-jYstxLY02GLs-24" value="" style="shape=image;verticalLabelPosition=bottom;labelBackgroundColor=default;verticalAlign=top;aspect=fixed;imageAspect=0;image=data:image/png,iVBORw0KGgoAAAANSUhEUgAAAA4AAAAfCAYAAADXwvzvAAACcUlEQVR42pWTTUgUYRzGn5KMUqIPoTLQhJISSaTFKAoMQpbW2W01EbFDkIcO0j06eOko3j1EUNhhLhGkJGgLrm27ohW5mKm1SB6WldIWV2fmfQ/tM/Jub35uf/jBw/NxmJ1Z4O/t6erC3p1gB/qN92Jf3EShYiXVf0JaSwFCrWfsuiOzBQU/TBzQcZanPcJK+gn1xpwbzA5gfyqEYh1hJbzCmjfWSXg35twgZaJ4KYTDirXvj8pF5ouhQ0/vcIOfAziUHsIxxdp0Z4VITxg69PQON0gOomgliuMKa+7eGZEOGzr09A434MNmRlGqsL61Vopfg4YOPb3DjfsqVsMoU9gzvvNi8aWhQ0/v5F7J6jjK1mKoIPZUQ7VY7DN06Kmc3dwHkBnBSSuKs8SevFojkr1+HXoqZzc3TIdQYkdwjjifPLViocfQoadydnPD5DMU2e9Q7RItvCAWHhs69FTO7j/fqx1DjULMP/Tr6Bk2nhVGpRPFRSITDwI6ymdn0zAzjFNOBHVEznYEdJTPzqbh7zc46ozhChEztxrlXHuQUCufnU1D00SBiOGay2R9o/zaFCTUymcHW50Tg0dEcV1M1TXKGV8ToabHDNudPYIq8R43xMdyn4zXNxNqesy2HfLhxRi84kOpX8Yv3SbU9Lb8YdTxq88+i0+MHTTk56oWQk3P/UfsdHIUN2WkMCgnTre6UGc97HbOEC7Lt2iW4dI2l6ymt+vQ6kelHESrHC5qc8lqersOl/twRL7CHfm6YJ2spod8Tpq4q4N8TzyHT75AB6HOe+g8gUc+xX1Cnfcw3Y0S2YtOQo3/OacbtaIHDdvlfwBN+lyVYDlqcwAAAC10RVh0U29mdHdhcmUAYnkuYmxvb2RkeS5jcnlwdG8uaW1hZ2UuUE5HMjRFbmNvZGVyqAZ/7gAAAABJRU5ErkJggg==;" parent="1" vertex="1">
          <mxGeometry x="190" y="676.8600000000001" width="58.71" height="130" as="geometry" />
        </mxCell>
        <mxCell id="Hxffqac-jYstxLY02GLs-2" value="" style="shape=image;verticalLabelPosition=bottom;labelBackgroundColor=default;verticalAlign=top;aspect=fixed;imageAspect=0;image=data:image/png,iVBORw0KGgoAAAANSUhEUgAAAGoAAABQCAYAAADxwOBcAAAAAXNSR0IArs4c6QAAAARnQU1BAACxjwv8YQUAAAAJcEhZcwAADsMAAA7DAcdvqGQAAAAtdEVYdFNvZnR3YXJlAGJ5LmJsb29kZHkuY3J5cHRvLmltYWdlLlBORzI0RW5jb2RlcqgGf+4AABTvSURBVHhe3Z19jJXVmcDP3LkMIDCAEEFAGQQRRYX6RZq0FUlEVtdI/cN0jXVnY7r+V2lsYtgay7bdRZO6sM3+Y6sspqRp9Y/FGI0iUbe1f2ijIogwfDrISIHhYxAGBuZjn9+Z97kczpzzvu+9cy919pdc7vvemXnP83HO8zznnPe+1Jka8cYbb/x3fX19c29v7yY5Xd3R0bH+gQce6Oj/6f8PXnrppbGNjY3NdXV1zYVCYX5PT8/aJUuW/FPy46pSE0epk5JTy8EPPjA7161b39fbu/ZnLS2vJB8PSZ6aM+cfxTlLr37ooaWTbrst+bSfWjmr6o5SJ40YMcLMnDnTnD592mx/9VXz4W9+Y3qT3+kz5nhfd3fzUHPYU9dcc19dsbhWjDaO84K8bv7BD8yce+81I0eONLt37zZnzpypibNoq2r4TpJj0/355+b0H/5grmtsNFPl8zHFIr1jXF2hsDr5syGDOgkd0AWd0A0d0RWd0R0bYIvkz6pC1RwVctLJvXvNZytXJr9hzPiGBjNKPrcUCp/3HwwpyLdWB3RR0BFda+msqjgqOJJOnbIK9Mi7crqnxxzq6rLHvV1dK+zBEEJlRgd0UdARXdG5Vs4atKNiTtr85JOm69Ch5Lf6aZN8RZ6S1+qf79r1v/2fDh2QGdnRAV1c0BWda+WsQTkq5CTY/cIL5pSEAhd64ZneXiNV36afbd36o+TjIUfXl1+uQAd00eigoDO6Q7WdVbGjYk5q/f3vzaG337bHyqnu7vMhr6fngrJ9qPHMsWMdqgM6oZsLumMDqKazKnJUzEkHRch9iZBKT1+f2Z+ECVFwxc937PjEngxh0AFdOEY3dHTBBtgCquWssudRMSdR9Xz8o4ER7YDMK46cPWv6xo41Xd/5TqmA6OvrO/7MM8/8Z3I6JHjiiScek4munUPB8D/+cUVdR4eZIBXg5WIPn2+sWmVGz5hhj2VuNah5VlmOSnMSidSt8ODEuXNmn/S4vmHDTPcddxhzySXJT/rp7u5eKs4aEpNecdK8YrFoy/MS4qTie++ZOtHzSpnwNoqeLvWjRpkbf/GLqjgrd+hTJw0TYVwnUeXs+NWvBjjJDXmTxElzbrrJzJkzx74uv/xy+3mhUBgyJbrIavMSsqsecxYssLpBKARiE2yDjQCbYTtsiC3LCYO5HKVOEmFNU1NTyUnASPIrPJ8Z3/rWeeXkdcMNN9jPWch8/PHHp9uTrz9L+QfZXV3QLQ1sg40UbIcNsWU5zsp0lOskegNrWkqL9JaYk+rr6kqz97YNG+y7comEwLGSs0DCiTXA1xnCnujfhMzI7qK6oSs6h8BG2ErBhtiyHGel5qg0J1GC+hWez1mZa+w4edIURblFv/ylGeYoSazesmWLYRtk5cqV30g+zuS5554bKzmSMFRK6mXyueSI9Y8++mjuLZfly5evEhssYzRhB+VcZ6d5+8c/Nt3yPnv0aNMgdkrjyu99z0yXl8KCNXYQG2TmrKij0pxE6UnszUOrKPGVzDWue/BBM2Px4uRTYzrl8w1JbxTDNT377LOt9iSDF1988R2RaWFyWhFSca5/+OGHv5ucZiKO2ittNi0W+d0RtVfk/+x3v7MLzdO9kRZj9g9/aCYtWpSc5XdW0FFpToqV4TG08hs5caIdVS7vvPOOFE4dVH/L8pTqL7zwwryGhoZNEi7NjKSSKpe9Ir+0Z86ePTv/kUceyZzTabVH2LsjKRwURtPp9vZgxZeGW7ZDHmcNGKtZTnITYx5QYJjEbhT660cfJZ/2o9WfOzdJQwxmR9KECRPM7NmzK3rxt+61smCDkHeVVUEXdEK3cpwE2BBbKnly1gWOSnNSrAzPAxNCIFQMElsiT5o0yZ5UgvO3g1rKUl1Ut3Lwy3bIclbJUWlOApbxs8rwGFRENHR0+3bTKb2wEigiRLb5HE+ePNl+Vgn6t1yLa9qTMkEHdEEnd1+qHLClu1cHac6yjspyEqVlx6efJmflQ9mq4WHn+vX2vVyk0rMhqLGx0U4YK4W/5Rqg1ywX1QGdYiV5HrCpW7ZDzFmFN99886dpTmp79dUBq+GVcNnw4fZ9/3vvmfYDB8yxY8fM0aNH7Wes+9mDFDRXDCbsKXoNvWYaKhuyIjOyowOoToMB22JjF99Z+IgRZWP1lClTBjiJMnxPsr8yWJhj6Db8njfeMJs3bzaHko1FqcIyh5kYzCb/ajpKr5mGyoasyIzsgC5Z86a8YGNdbVfwBT5JaC6IsO9yxEKhC1WJboJVi3FJyDr0l7/Y3klvZWE2aw61Zs2a+6R3jaMs1xWNwcA1uBbX5NrJx0GQDRmRFZmRHVSXaoGt3UoQ1Cf4qCDD3zrq5MmT9kPljPSgSiq8NEi8lLN1Mtmt27ePecPqPKvnYlDb8wdTRPg4RUXmqEJGZEVmZEeHSouIGNgam7uoT/BRQXpLaUSxDK+Mu/765Ki6qIIFUTovefLT4YPtZtuWFvvauW2vfR05fCz56UDKyVOKylxtJymuzfGFjih8VLjnnntapbfYW7dYJVCKo0aZURXO/tPQeUdBStw8znr++eenS69v4lgnqyHWPf+S+bef/Id9/de/r7Gv/1n3evLTgei1uDZt2JMUkBWZoZK5UxbYGpsr6gt8g480G9qEecoLdWNrMKooZzW+D9u0yTogDSmnbY+/9NJLU8vyw4eOJEfnOdoeLya5FtdMjjNHlcqK7IMpyWP4tnZ8YX1jHaUFhZ+nJixYkBxVF+2REnaanxg/Pqs6sEbMyk/79u5Pjs7Ttu+vyVEY55qpjkJGZOW4FqMJfFurL9Q31lEnTpywJ+fOnWOxkkNLrfLUSCltRySlbcO110ZvbU5WI2yy194fgrwUg1wVQ69JG2mrFCojMiN7LXBtjQ/wBahvrLX4OozEQns/wMUeVYXOzuZ/aW4ObpzpygFzirSyvDUwmpS21gPJ0UC4ps4dY6sUyIaMHF/s0YRP9KtKmqPAxkLxoD1RapGngMqJHsqNIRL/m3+ydOkAZ8mwzzXJpeKLkZanIG3yi0zIhozIWqtqz7ex44PSQkDJUVIOBvNUrRwFM6gsJZRYZ+3c2fzkzTc/lvzIoqVzWrUHofykpI0o0Gv7ZTqyIBOyISOy1grfxuoD9QmUHHX33Xfbe8FluNmNLIUNLm57qgVUTxhAq8DimTOr+ZIYx2vWrLldcofdp8oqJLZ9uiM5Gsiu7elfGnEmvqxS3M4xMiALx8iGjLWo9ADb+puI+ADUJ+CGPn7BDrWLlaeUaZIn1FmF+vq1T82dyz0KtocPJuwpaRNf0DZo07YtMnCOTMhWS1LyUynswQWO0lLQz1O1qv5cMEipwDBmWXd7+zKOs8JeWiGhZJXp2gZt0rb9TGSptZPAt63aXn2hXOAowf7wYkx8Q3BbMN/kK0o1Njzp5Vkjat/eL5KjOFl5StugTdpGhtAtyrXAt61j+7ijlixZ8ol40pZJbvgbcdllNVlOCkFlNfW66+wxG3z+fXQ+27bE85OyK2UuBbShm4m0XavqzgebYltFbY4P8IU9SfBHVCk2Vlqmc8EGSbwjpZwdLdWSrer6f5SbhiuusO9pk1wltHTkk1Wig7albecF3dARXdEZ3QcYNYJvU7W5n59gwDWlTLVDzi8oYo5C0OEiIMI2sl8kCXiUvI+Q82EInrzy0ie9ufeqq+xxVrV36mSnac/pqM5TF35D0Efbom1kyIvqh67ojO7YAFtgE2wT66i+TdXm6gOXARYsd9uDJZVL5IWwsRK2WEZp2zt1qn2vl2tmz5+y85OSp6CgTVAZ8hDTDVtgE2zDK4RrU39bwx44DHCUu+3hjiqW4EOjyv8GQ4hyHNWT5MLx48dfsO4YIk/Fp2QVFLRFm6Ay5CGPbiEbYUt3W0Ntje3xgT1xiMUkGyPzVH/dyeQsjYIok9dZaqQxY8aUFiZjtO6p3oiiLdqEvI5CJ3TL4lzARr4t/W0Nn6CjtIZ3NxIhNPElOFZrVPUS6pI7e+jdEgLscYw8+Uk5mjHppS0dUchgZckg72g6n0DO49tSbe3Pn5Sgo6T6sL/sb3vElpO6q+SonqSIGDdunL35JMtRaUtHPllLSbRFm7QNKksaeXQK2cZfNgpta/gEHZW27REqKvKEP6qiWJxVNOTonEZkuKCgcSkn7Cn7I3mKNmgLtO2s8Icu6JRFyDa+DZ38VNrW8ElrKXeeOpdjRIXitEuv5Ie+iRPtcSkECbFR1VpGxafECgq3DW0bWZApjSydIGSbcvMTRB2lS+x58hSiDPj+qpyfkZ56UoxwTIb1SXpt8rMQvcnNhqwSDHfuQI05qpz8pMQmvm4btK2rISpTCHRBJ6ub/D26+jYg7IW6cCw/qc1DRB0V2/ZgyWO4s+yh8GwgXp3y6hDhT4jwp+Vv84w20FDjjiaIVX6VhL7YiPLbUBnyVn/oiK7ojO7YAFvgPB9s5y4bxbY1fFKDrFzADkU/T8XCH4+d6ZKXO3JogBsW2SFllh5DVyM0mSsxR93/D/cmR/lZcv/5b/q5+G2oDCpTCHRBJ3RztUJ3bIAt8oQ9Jz9Fwx6kOkpLRT9PxVYpgDk4SjAb1yWl0fJeWsEIVEracxsaGsyoUFUZCH/Tr7pCnPX3yVk2S757h5k2/cIvo0Ho2siALBAaVeiALuiEbrpkxGfonnb7i287tW2sLFdSHSXYP/ZHVChPAT2Mr6KUBA44pSif+8TCnhLLU4yqK2dMS87iTL1ysvm7yGiKXTst/IV0QNdSBxUbsEAbwredY9vKHaXbHsRQ11mxu2izZxXhuYcmbS2NfdKWkh59LPuLgw/+8/3J0UBi1y5NEQIFRZ75U13gd/y7YbEptsXG/raGT9aIKsXOapXp9LxYaNAlHJ9Yr4esEBgLeUrs2jFZkD22+OzCoxt8YmV5Vn6CTEfFtj1C4Y9ytDeHs/zQUfjyS/t+8OBB++4Tm/QqhMCbF8wz114/275mzWmyrxtumhMNeUrs2iqLyqaEwp4PNgitSMTCXmhbwyeza7z22mvTJbHa9Ze5c+eWtgLgT0sH3rPIHkzW/hO97ZRjICaWXd//vr32vHnz7FKODzdLaoKvFoQ9f54IjLJPPvnEOnH4b39rCl99lfykMv2Ubztfi+XaW7dutcciR1Noxdwls3vEtj0gFP7yrvu5PQRD1G/fboWPjapYmT4YYtdEBmRBJtdJyFzp+l5KWR7c1vDJHsf9BPNUKPzlWVZha8BvuJh8k+/w4cP23SctT1VK7Joqg8qkIHOl2xq+rRxbZuYnyOUorfHzjChEDG170MuYqfO4HZZd/MBAzy20tdlwFHLWxXIUbSMDsrijCZAZ2dEBXUIjB91DXTU2orLmT0ouR+nSO1vFbjkb2/agR/GysVqUYlkF5VhmSQuN2oPbxEg+lLGxxF8JXItr+mjb/mhyQQd0QSd0Q0d0VZ19Qtsauu0e29bwyeWocr/tgRIsWJJQz0Z6WIh6qbAu1qjKGk3Ikgd0Q0d0RWeWjnxi1R42jW1r+ORyVEIwT6UtJ1VCcfNm+94eeMJLrR2lbaoM1SK2bCTkyk+Q21ESKnLnqcFQv3evqTtxwnwl+UHvc1OqWfn516It2qRtZKgmsfykNs1DbkfpEjwKunkqtu0xGGK5qpaOypObKsHf1sB22nbatoZPOaGvtNThTxJvWrXKPjCwWg4rtrSURpUfaqsR/vxr0IaOJtquBtgCm2AbF7Wd2jIvZTlKS0nfeCw08lTH2379a3Pt8uVVCYeaJ/wJcC0cpW1UIzehOzbAFtjEXYQFtV3eslwpy1FCME+5TJQKh2d93yqCXiaChsr3PLAqYLq6bILvcv4PDDfsVop7Da5tiwh5t21WADqiKzqjOzaI4diuLEdlT7M9NmzYcKyurm7ctGnT7Pqbu/YXgocH8vQsHsrk/+83WZy79VbTLa+JEyeaq5LdVtrL8+WBNHhSmM7J9uzZYx1FbhpWZn4ivDFqpt5774CR40N7hL39+/fbbY3FixeHN98ilO0ofbZfcmp3Q0ePHl16TwNn8cr77D9u1j/10EOmnu9NOfeDZ30VJwsePKxQRPTI5HPUunWmLudoJbzhIPchviEYPYQ6fVckP6246667/jU5zUXZjuJ/yhT4Vt7SQvJESkXOS05LW+0+Lo7CYVnPATwmhuu85RZzacZD4AdL+8aNZrTIlPW9KMIbzonNHQmpjBp1jjgk+Uk/THDlbb38zuq8E12lbEe5sAVSLBYXylBeKOFwoTjqgkfm8Bgb13F+mCQs4jBCYygstkglxmZkhziq0fkKDgahIJCRtUlCYq7qqaWlpVnK4iZkch/Vc3rfPnPJBx/Ym1SuCWwWEt4IbaHCQMOZOsYv+cUxn1M0sN8k8r6bZ5U8xqAc5SNhcZ68qdMGbFaNkBDmOs6l/f33zZfiMA2LjKY2CUmd8vtts2bZzxQMwgRVDHH8yJEjTR9++GFq71y0aFFpT407jPwO0/TZZ2aYtMdXQnVUEd6miIP8wsB1jK7XuYhM65OK7t2s7fVyqKqjfF5//fXbxSg8aGNAmAQcxr0JOE+foMLDBRlhf3rlFTua9ouTTsvPfTAYo0oM0ywFzovJx0HuvPPOx0SO1dxcGcqjY6S4mCwji1H17fvusyNIF1G57w6n0DHcPKNoOGOVoZwJbLnU1FEu5LatW7euFoc0zxLj+yNK8xuOY8S0bttmdv75z+ZTMVIIJqi8xFArxFGpiVkqrJ/K9VdwH0TsXohbpN0rvvlNM+vGG+05jgnlGTrIrl27cODauXPnLis311RKem1dRV5++eUu6dHzW1tbF+7cudNWWzz6EwiJOIo5jfbcooywFpmI4owQ5ClehJndu3en9uSZM2facMyIcm+Xdhk+ZYppuvpq2z4vZJFr2zYOHDhgPpPw+NFHH5n3JUTv2LHDfPHFF+uffvrpN5M/rzkXzVHgGkzezfHjx80+CTnbZPQwv8BA5A8chSP57xn8Hq1U21G0SdsUCBxL8WHvm/j444+tjMjKSC+n3WpS7spEzcAQ9NS3pQrkRe/1q6haQlu0qe0jCzJ9XbhoOQokqVNclLV0koUUFEs3btyY+gDhv1W71eSihr49e/a0yryHMnm+hKJc/3FKDAk9XGfTW2+9tbz/kzh/q3arhzH/BxNHXGWVw4diAAAAAElFTkSuQmCC;" parent="1" vertex="1">
          <mxGeometry x="160" y="60" width="371" height="280" as="geometry" />
        </mxCell>
      </root>
    </mxGraphModel>
  </diagram>
</mxfile>
